<?xml version="1.0" standalone="no"?>
<!DOCTYPE svg PUBLIC "-//W3C//DTD SVG 20010904//EN"
 "http://www.w3.org/TR/2001/REC-SVG-20010904/DTD/svg10.dtd">
<svg version="1.0" xmlns="http://www.w3.org/2000/svg"
 width="384.000000pt" height="384.000000pt" viewBox="0 0 384.000000 384.000000"
 preserveAspectRatio="xMidYMid meet">

<g transform="translate(0.000000,384.000000) scale(0.100000,-0.100000)"
fill="#000000" stroke="none">
<path d="M530 3536 c0 -8 5 -18 10 -21 6 -3 10 3 10 14 0 12 -4 21 -10 21 -5
0 -10 -6 -10 -14z"/>
<path d="M450 3460 c0 -5 7 -10 15 -10 8 0 15 5 15 10 0 6 -7 10 -15 10 -8 0
-15 -4 -15 -10z"/>
<path d="M600 3460 c0 -5 7 -10 15 -10 8 0 15 5 15 10 0 6 -7 10 -15 10 -8 0
-15 -4 -15 -10z"/>
<path d="M1842 3414 c-134 -36 -196 -116 -232 -298 -9 -45 -23 -72 -60 -118
-50 -62 -70 -116 -70 -188 0 -63 25 -46 27 18 1 28 9 63 18 79 10 17 14 20 11
8 -8 -33 -10 -114 -3 -121 4 -4 7 10 7 32 0 98 56 221 134 300 67 66 147 94
270 94 163 0 301 -70 390 -199 l27 -39 -34 -46 c-36 -46 -50 -81 -62 -149 -5
-31 -9 -36 -23 -28 -46 24 -97 -49 -67 -96 21 -31 38 -29 69 8 16 18 26 25 26
16 0 -8 13 -40 30 -72 l30 -56 -47 -50 c-55 -59 -160 -114 -248 -130 -134 -25
-264 14 -358 107 -28 28 -47 40 -47 31 0 -9 18 -31 40 -50 35 -29 40 -39 40
-75 0 -22 5 -44 11 -48 20 -12 -14 -24 -71 -24 -62 0 -74 6 -84 37 -4 12 -16
25 -26 28 -12 4 -22 19 -26 39 -8 46 -39 95 -68 105 -19 8 -24 19 -29 61 -6
50 -29 100 -45 100 -5 0 -17 -6 -27 -14 -15 -11 -19 -26 -19 -69 l1 -55 -44
34 c-49 37 -65 41 -83 19 -16 -19 -5 -50 35 -94 32 -35 33 -39 24 -85 -8 -42
-6 -54 11 -81 11 -18 32 -40 45 -49 14 -9 25 -25 25 -36 0 -13 10 -25 28 -32
15 -6 56 -25 91 -42 55 -26 77 -31 138 -31 68 0 72 -1 66 -20 -27 -85 -31
-198 -8 -242 8 -15 26 -90 40 -165 26 -134 26 -138 8 -161 -10 -14 -40 -32
-69 -41 -195 -62 32 -134 386 -124 176 6 293 26 332 58 19 15 20 20 9 34 -7 9
-31 21 -52 27 -63 19 -87 66 -90 169 l-2 85 36 6 c48 8 65 23 77 73 6 22 14
48 19 56 15 28 12 139 -4 199 -13 44 -14 64 -6 79 17 31 13 64 -12 113 -17 36
-20 51 -13 72 8 22 6 31 -10 48 l-20 20 45 47 c43 43 49 46 91 44 70 -4 157
49 192 118 48 91 36 184 -35 273 -26 33 -36 58 -45 113 -34 210 -148 330 -359
378 -89 20 -258 20 -331 0z m343 -30 c152 -37 260 -133 300 -268 16 -51 8 -69
-30 -64 -23 2 -30 10 -40 43 -41 138 -126 213 -292 256 -83 21 -238 26 -308 9
-52 -12 -57 -4 -10 16 84 35 256 38 380 8z m-84 -59 c160 -34 235 -97 285
-239 l15 -40 -55 61 c-102 112 -213 163 -356 163 -49 0 -101 -7 -139 -19 -34
-10 -61 -17 -61 -14 0 19 29 48 73 73 61 35 123 39 238 15z m-378 -42 c-25
-24 -49 -73 -69 -142 -3 -8 -7 -12 -9 -9 -3 2 3 30 12 61 11 41 26 66 50 87
42 38 55 39 16 3z m348 -33 c74 -14 165 -59 220 -108 55 -49 119 -144 101
-150 -6 -2 -13 -4 -16 -5 -2 -1 -24 25 -49 59 -55 74 -144 137 -238 165 -54
17 -89 20 -163 17 -94 -3 -104 6 -23 21 60 12 106 12 168 1z m315 -389 c-52
-97 -38 -219 32 -278 l27 -23 -23 0 c-72 0 -132 91 -132 199 1 88 31 153 90
194 25 17 25 17 30 -10 4 -19 -4 -45 -24 -82z m172 33 c65 -45 78 -164 22
-198 -16 -9 -39 -16 -52 -16 -18 0 -20 -2 -8 -10 22 -14 46 -12 64 6 25 25 20
-6 -6 -33 -28 -30 -73 -30 -101 1 -24 27 -57 113 -64 168 -10 73 83 126 145
82z m-1169 -247 c5 -13 12 -45 16 -71 7 -43 5 -50 -21 -77 -42 -44 -77 -40
-131 16 -83 87 -39 120 47 34 l50 -50 -6 70 c-4 38 -4 77 -1 85 9 24 36 19 46
-7z m961 -107 c0 -6 -21 -32 -47 -57 -60 -58 -171 -112 -244 -118 l-54 -4 50
10 c81 17 170 65 227 123 54 55 68 64 68 46z m-879 -51 c12 -17 24 -50 26 -73
5 -40 3 -44 -35 -75 -59 -46 -93 -56 -131 -36 -30 15 -45 40 -18 29 24 -9 64
14 71 40 8 32 22 33 47 4 20 -23 20 -23 10 -1 -6 12 -11 31 -11 43 0 20 -1 20
-26 4 -55 -37 -48 41 8 80 30 21 33 21 59 -15z m-120 -63 c8 -28 8 -28 -28
-23 -43 7 -58 20 -49 42 4 11 15 15 38 13 25 -2 33 -9 39 -32z m13 -46 c14
-14 -4 -30 -34 -30 -41 0 -60 10 -60 31 0 17 5 18 43 13 23 -4 46 -10 51 -14z
m182 -22 c11 -17 -68 -83 -122 -104 -41 -16 -47 -16 -61 -1 -14 14 -12 16 24
26 22 6 60 29 84 51 46 41 63 48 75 28z m366 -20 c-9 -9 -15 -9 -24 0 -9 9 -7
12 12 12 19 0 21 -3 12 -12z m267 -192 c11 -44 21 -95 21 -115 0 -20 7 -47 16
-59 15 -22 15 -23 -13 -16 -45 11 -46 13 -40 90 3 47 0 94 -8 131 -8 32 -14
72 -13 88 0 30 0 30 8 -5 4 -19 17 -71 29 -114z m-491 95 c22 -14 -5 -58 -40
-65 -59 -12 -123 -6 -168 16 l-45 22 70 7 c39 4 88 12 110 17 52 13 58 13 73
3z m458 -178 c-4 -64 -12 -95 -26 -115 -22 -30 -26 -58 -10 -74 15 -15 -6 -30
-50 -38 -28 -5 -31 -5 -17 4 12 8 17 24 17 60 0 40 4 50 20 55 29 9 50 57 57
130 9 97 17 78 9 -22z m-163 -108 c57 -16 57 -16 57 -56 0 -34 -4 -41 -27 -50
-16 -6 -71 -9 -128 -7 -82 3 -110 9 -157 30 -60 28 -86 62 -74 94 6 15 20 16
139 11 77 -3 156 -12 190 -22z m362 15 c-3 -5 -11 -10 -16 -10 -6 0 -7 5 -4
10 3 6 11 10 16 10 6 0 7 -4 4 -10z m-82 -28 c59 2 72 0 72 -12 0 -23 -138
-27 -171 -5 -30 19 -23 40 8 24 11 -6 52 -9 91 -7z m-11 -47 c67 0 68 -1 68
-26 0 -47 -30 -72 -92 -77 -70 -5 -100 9 -96 46 2 18 8 26 18 24 8 -1 3 7 -12
18 -16 12 -25 27 -22 35 5 12 11 12 37 -2 21 -11 56 -17 99 -18z m-529 -59
c55 -35 250 -44 347 -16 29 8 35 6 52 -15 10 -13 31 -25 46 -27 22 -2 28 -8
30 -35 3 -28 0 -33 -20 -34 -23 -1 -23 -1 2 -8 22 -6 25 -13 28 -59 3 -51 2
-52 -25 -53 -27 -1 -27 -1 4 -9 43 -10 63 -27 63 -54 0 -36 -20 -46 -91 -46
-117 0 -127 10 -147 158 l-9 62 36 2 36 1 -33 4 c-34 4 -36 7 -46 56 -6 26 -8
27 -74 26 -43 -1 -58 -3 -42 -8 19 -5 26 -15 28 -38 3 -30 1 -32 -35 -36 l-38
-4 43 -1 42 -2 0 -89 c0 -119 -4 -123 -124 -119 -90 3 -91 3 -94 29 -4 30 10
43 58 57 32 9 33 10 8 11 -23 1 -29 7 -38 44 -6 23 -13 48 -15 55 -3 7 5 13
18 13 22 2 22 2 0 6 -22 4 -27 17 -38 96 -8 51 -5 54 28 33z m262 -123 c4 -32
11 -77 15 -100 9 -49 6 -53 -32 -53 -24 0 -28 4 -29 28 0 15 -4 62 -7 105 l-8
77 28 0 c25 0 27 -3 33 -57z"/>
<path d="M1778 1693 c12 -2 30 -2 40 0 9 3 -1 5 -23 4 -22 0 -30 -2 -17 -4z"/>
<path d="M2098 1693 c12 -2 30 -2 40 0 9 3 -1 5 -23 4 -22 0 -30 -2 -17 -4z"/>
<path d="M535 3397 c-4 -10 -5 -21 -1 -24 10 -10 18 4 13 24 -4 17 -4 17 -12
0z"/>
<path d="M1840 3081 c-86 -27 -194 -121 -188 -164 5 -33 33 -32 90 3 80 50
124 61 246 67 62 3 115 10 118 15 10 16 -37 56 -84 72 -48 17 -139 20 -182 7z"/>
<path d="M2133 2604 c-3 -8 -1 -20 4 -25 12 -12 48 14 39 29 -10 17 -36 15
-43 -4z"/>
<path d="M452 1099 c-36 -11 -72 -59 -72 -96 0 -12 9 -45 20 -73 11 -28 20
-67 20 -88 0 -20 -9 -69 -20 -107 -25 -88 -26 -156 -2 -178 23 -21 82 -30 114
-18 15 6 34 21 43 35 16 24 16 29 1 73 -21 60 -21 117 0 134 22 18 31 1 39
-75 11 -103 23 -135 58 -156 38 -24 94 -26 124 -5 12 9 27 32 32 52 14 50 -5
87 -74 147 -30 26 -55 54 -55 62 0 8 12 38 27 67 49 96 35 175 -40 213 -35 18
-172 27 -215 13z m136 -71 c25 -25 8 -122 -24 -135 -22 -8 -34 14 -34 65 0 69
27 101 58 70z"/>
<path d="M1480 1101 c-74 -15 -120 -53 -161 -131 -21 -40 -24 -58 -24 -160 0
-99 3 -121 22 -156 71 -133 242 -166 346 -66 42 39 57 75 57 131 0 39 -6 56
-26 80 -33 40 -58 39 -105 -4 -85 -77 -150 -17 -137 126 9 93 69 119 113 49
30 -47 66 -53 109 -19 86 68 -56 178 -194 150z"/>
<path d="M1802 1104 c-28 -13 -32 -52 -12 -130 26 -101 25 -137 -5 -231 -27
-87 -32 -160 -11 -188 14 -20 104 -33 150 -21 63 16 70 56 26 156 -16 38 -30
78 -30 89 0 47 59 9 86 -55 12 -28 12 -46 2 -103 -7 -39 -9 -74 -5 -77 17 -17
115 -16 151 1 72 34 81 102 26 189 -34 53 -65 75 -128 91 -26 7 -47 18 -47 25
0 6 38 38 85 69 95 64 115 94 89 139 -8 15 -27 33 -43 41 -46 22 -68 3 -121
-101 -26 -51 -49 -95 -51 -97 -2 -2 -11 2 -20 10 -18 15 -15 74 7 126 12 29
11 35 -4 50 -17 17 -118 29 -145 17z"/>
<path d="M2323 1095 c-17 -7 -39 -25 -48 -39 -19 -28 -18 -30 31 -156 l17 -45
-36 -81 c-40 -87 -46 -138 -23 -183 22 -41 57 -52 167 -52 108 0 153 15 168
55 11 26 -1 99 -19 121 -18 21 -63 19 -94 -6 -15 -11 -33 -18 -41 -15 -31 12
-31 110 1 137 12 10 21 9 50 -4 42 -21 39 -21 58 -1 19 18 21 75 4 92 -15 15
-54 16 -63 2 -9 -14 -48 -13 -63 2 -15 15 -16 53 -2 79 13 23 41 24 82 3 39
-20 76 -11 84 21 9 36 -1 54 -41 70 -44 19 -189 19 -232 0z"/>
<path d="M2690 1103 c-31 -11 -50 -37 -50 -67 0 -52 13 -63 54 -48 26 10 41
10 56 2 26 -14 26 -59 -1 -210 -23 -135 -19 -191 18 -227 21 -22 31 -25 71
-20 34 4 53 12 69 32 29 33 29 72 3 201 -27 131 -30 198 -9 220 13 12 21 14
37 5 49 -26 87 0 80 57 -5 47 -53 62 -193 61 -66 0 -127 -3 -135 -6z"/>
<path d="M3183 1101 c-74 -19 -116 -68 -116 -135 0 -75 42 -122 146 -161 53
-20 66 -37 47 -60 -25 -30 -69 -18 -115 31 -34 38 -46 45 -64 39 -28 -9 -51
-61 -51 -116 0 -86 56 -147 154 -169 170 -38 320 113 262 264 -23 61 -52 84
-153 120 -84 30 -88 33 -88 61 0 23 6 32 27 39 23 8 32 5 63 -22 19 -18 44
-32 55 -32 39 0 61 48 44 95 -15 38 -137 65 -211 46z"/>
<path d="M949 1077 c-74 -50 -119 -152 -126 -289 -5 -80 -3 -92 22 -143 19
-41 37 -61 68 -79 108 -61 264 -29 312 65 72 137 6 391 -117 455 -42 22 -119
18 -159 -9z m114 -85 c27 -29 58 -109 64 -165 3 -28 12 -61 19 -72 18 -25 18
-76 0 -100 -14 -19 -14 -19 -36 0 -13 12 -36 19 -66 20 -37 0 -47 -4 -61 -24
l-16 -25 -18 23 c-23 28 -25 80 -4 107 8 11 14 41 15 71 0 73 45 182 76 183 6
0 18 -8 27 -18z"/>
<path d="M1020 875 c-17 -20 -5 -45 20 -45 11 0 23 7 26 15 6 15 -11 45 -26
45 -4 0 -13 -7 -20 -15z"/>
<path d="M610 365 c0 -58 2 -65 20 -65 15 0 20 7 20 25 0 20 5 25 25 25 34 0
32 18 -2 23 -23 3 -21 4 10 6 32 1 37 4 37 26 0 24 -3 25 -55 25 l-55 0 0 -65z"/>
<path d="M760 365 c0 -59 2 -65 21 -65 18 0 20 5 16 41 l-4 41 39 -6 c29 -5
40 -3 44 9 11 27 -16 45 -67 45 l-49 0 0 -65z"/>
<path d="M926 408 c-9 -12 -16 -33 -16 -45 0 -53 78 -84 113 -45 24 26 22 88
-2 102 -34 18 -78 12 -95 -12z m75 -43 c0 -5 -12 -11 -26 -13 -18 -2 -25 1
-25 13 0 12 7 15 25 13 14 -2 26 -7 26 -13z"/>
<path d="M1086 384 c-10 -78 -9 -84 20 -84 25 0 25 2 19 43 -7 41 9 45 17 4 5
-27 23 -22 26 8 2 14 8 25 13 25 5 0 7 -17 3 -40 -6 -39 -6 -40 21 -40 26 0
27 2 21 38 -3 20 -6 49 -6 65 0 22 -5 27 -24 27 -19 0 -25 -7 -31 -37 -5 -27
-9 -33 -16 -22 -5 8 -9 24 -9 37 0 16 -6 22 -24 22 -20 0 -24 -6 -30 -46z"/>
<path d="M1355 418 c-21 -57 -35 -102 -35 -109 0 -5 11 -9 25 -9 16 0 25 6 25
15 0 8 7 15 15 15 8 0 15 -7 15 -15 0 -9 10 -15 26 -15 17 0 24 5 22 13 -3 6
-13 36 -22 65 -15 44 -21 52 -42 52 -14 0 -27 -6 -29 -12z m31 -75 c-11 -11
-17 4 -9 23 7 18 8 18 11 1 2 -10 1 -21 -2 -24z"/>
<path d="M1490 365 c0 -58 2 -65 19 -65 16 0 20 8 23 38 l3 37 23 -37 c36 -59
52 -50 52 27 0 60 -2 65 -21 65 -17 0 -20 -5 -17 -25 7 -37 -6 -39 -26 -4 -9
16 -26 29 -37 29 -17 0 -19 -7 -19 -65z"/>
<path d="M1670 414 c-8 -8 -13 -28 -13 -44 0 -81 111 -97 128 -20 10 47 -16
80 -64 80 -23 0 -44 -6 -51 -16z m78 -46 c-3 -7 -15 -13 -28 -13 -13 0 -25 6
-27 13 -3 8 6 12 27 12 21 0 30 -4 28 -12z"/>
<path d="M1830 405 c0 -18 5 -25 20 -25 18 0 20 -4 14 -40 -6 -37 -5 -40 16
-40 21 0 22 4 17 40 -5 37 -4 40 20 40 19 0 24 4 19 16 -3 9 -6 20 -6 25 0 5
-22 9 -50 9 -47 0 -50 -2 -50 -25z"/>
<path d="M1980 365 c0 -59 2 -65 21 -65 16 0 20 5 17 28 -2 22 1 28 21 30 22
3 23 1 18 -28 -6 -28 -5 -31 16 -28 20 3 22 9 25 66 3 61 2 62 -23 62 -22 0
-25 -3 -19 -25 5 -22 3 -25 -20 -25 -23 0 -26 3 -20 25 5 21 3 25 -15 25 -19
0 -21 -6 -21 -65z"/>
<path d="M2140 365 l0 -65 55 0 c52 0 55 1 55 25 0 23 -4 25 -42 26 -40 1 -41
2 -13 9 l30 8 -28 1 c-18 1 -26 5 -21 12 3 6 19 9 35 7 25 -4 29 -1 29 19 0
21 -4 23 -50 23 l-50 0 0 -65z"/>
<path d="M2290 365 c0 -58 2 -65 20 -65 17 0 19 6 16 41 l-4 41 38 -6 c30 -5
39 -2 44 10 11 28 -13 44 -65 44 l-49 0 0 -65z"/>
<path d="M2504 415 c-4 -8 -4 -22 0 -30 6 -17 36 -20 36 -4 0 7 12 9 35 5 33
-6 35 -5 35 19 0 23 -3 25 -50 25 -36 0 -52 -4 -56 -15z"/>
<path d="M2660 365 c0 -51 3 -65 15 -65 8 0 15 9 15 20 0 15 7 20 25 20 32 0
67 34 58 57 -10 26 -23 33 -70 33 l-43 0 0 -65z m80 5 c0 -5 -11 -10 -25 -10
-14 0 -25 5 -25 10 0 6 11 10 25 10 14 0 25 -4 25 -10z"/>
<path d="M2816 378 c-10 -29 -21 -59 -23 -65 -8 -20 38 -16 53 5 13 16 15 16
25 0 11 -20 49 -25 49 -6 0 6 -8 35 -17 65 -14 46 -20 53 -42 53 -23 0 -29 -8
-45 -52z m54 -18 c0 -11 -4 -20 -10 -20 -5 0 -10 9 -10 20 0 11 5 20 10 20 6
0 10 -9 10 -20z"/>
<path d="M2967 412 c-42 -47 -4 -115 61 -110 32 3 37 7 40 29 3 24 0 26 -34
25 -21 -1 -39 4 -41 12 -3 8 7 12 31 12 32 0 36 3 36 25 0 22 -4 25 -38 25
-25 0 -45 -7 -55 -18z"/>
<path d="M3110 365 l0 -65 55 0 c52 0 55 1 55 25 0 22 -4 25 -37 26 -34 1 -35
2 -13 9 24 8 24 8 3 9 -34 2 -28 21 7 21 23 0 30 4 30 20 0 17 -7 20 -50 20
l-50 0 0 -65z"/>
<path d="M2570 359 c11 -8 4 -9 -28 -7 -41 3 -43 2 -40 -22 2 -19 10 -26 32
-28 41 -5 73 5 80 25 8 19 -17 43 -43 43 -14 0 -14 -2 -1 -11z"/>
<path d="M828 329 c3 -23 9 -29 28 -29 39 0 28 37 -17 52 -12 5 -14 0 -11 -23z"/>
<path d="M2360 325 c0 -20 5 -25 25 -25 27 0 33 18 13 38 -20 20 -38 14 -38
-13z"/>
</g>
</svg>
